<svg width="42" height="42" viewBox="0 0 42 42" fill="none" xmlns="http://www.w3.org/2000/svg">
<path d="M33.4166 33.5C31.1041 33.5 29.2499 35.3542 29.2499 37.6667C29.2499 38.7717 29.6889 39.8315 30.4703 40.6129C31.2517 41.3943 32.3115 41.8333 33.4166 41.8333C34.5217 41.8333 35.5815 41.3943 36.3629 40.6129C37.1443 39.8315 37.5833 38.7717 37.5833 37.6667C37.5833 36.5616 37.1443 35.5018 36.3629 34.7204C35.5815 33.939 34.5217 33.5 33.4166 33.5ZM0.083252 0.166656V4.33332H4.24992L11.7499 20.1458L8.91658 25.25C8.60408 25.8333 8.41658 26.5208 8.41658 27.25C8.41658 28.3551 8.85557 29.4149 9.63697 30.1963C10.4184 30.9777 11.4782 31.4167 12.5833 31.4167H37.5833V27.25H13.4583C13.3201 27.25 13.1876 27.1951 13.09 27.0974C12.9923 26.9998 12.9374 26.8673 12.9374 26.7292C12.9374 26.625 12.9583 26.5417 12.9999 26.4792L14.8749 23.0833H30.3958C31.9583 23.0833 33.3332 22.2083 34.0416 20.9375L41.4999 7.45832C41.6457 7.12499 41.7499 6.77082 41.7499 6.41666C41.7499 5.86412 41.5304 5.33422 41.1397 4.94352C40.749 4.55282 40.2191 4.33332 39.6666 4.33332H8.85409L6.89575 0.166656M12.5833 33.5C10.2708 33.5 8.41658 35.3542 8.41658 37.6667C8.41658 38.7717 8.85557 39.8315 9.63697 40.6129C10.4184 41.3943 11.4782 41.8333 12.5833 41.8333C13.6883 41.8333 14.7481 41.3943 15.5295 40.6129C16.3109 39.8315 16.7499 38.7717 16.7499 37.6667C16.7499 36.5616 16.3109 35.5018 15.5295 34.7204C14.7481 33.939 13.6883 33.5 12.5833 33.5Z" fill="#F8F8F8"/>
</svg>
